#tb 0: 1/15
#media_type 0: video
#codec_id 0: rawvideo
#dimensions 0: 400x192
#sar 0: 0/1
0,          0,          0,        1,   115200, 0x375ec573
0,          1,          1,        1,   115200, 0x375ec573
0,          2,          2,        1,   115200, 0x375ec573
0,          3,          3,        1,   115200, 0x375ec573
0,          4,          4,        1,   115200, 0x375ec573
0,          5,          5,        1,   115200, 0x375ec573
0,          6,          6,        1,   115200, 0x375ec573
0,          7,          7,        1,   115200, 0x375ec573
0,          8,          8,        1,   115200, 0x0b4d31bf
0,          9,          9,        1,   115200, 0xdd724598
0,         10,         10,        1,   115200, 0xc3077e75
0,         11,         11,        1,   115200, 0xbf70778a
0,         12,         12,        1,   115200, 0x117eb766
0,         13,         13,        1,   115200, 0x4617fbad
0,         14,         14,        1,   115200, 0x5f5b02d2
0,         15,         15,        1,   115200, 0x2a9c5325
0,         16,         16,        1,   115200, 0x14a89e2a
0,         17,         17,        1,   115200, 0xe69aa994
0,         18,         18,        1,   115200, 0xfbacf589
0,         19,         19,        1,   115200, 0x1d714c6e
0,         20,         20,        1,   115200, 0x6eff66cb
0,         21,         21,        1,   115200, 0xee21c1cb
0,         22,         22,        1,   115200, 0xce714ada
0,         23,         23,        1,   115200, 0xf89d56c3
0,         24,         24,        1,   115200, 0x65fd5e60
0,         25,         25,        1,   115200, 0x0c256424
